<?xml version="1.0" encoding="UTF-8"?>
<svg version="1.1" xmlns="http://www.w3.org/2000/svg" width="512" height="512">
<path d="M0 0 C0.69319336 0.16097168 1.38638672 0.32194336 2.10058594 0.48779297 C25.71982681 6.17674016 47.02752888 18.66318245 64 36 C67.64230431 34.45934714 69.98962422 32.2404877 72.8125 29.5 C99.63719712 4.50467423 135.09246892 -4.20492429 170.89599609 -3.15234375 C178.08257245 -2.79962835 185.00824432 -1.66132562 192 0 C192.69319336 0.16097168 193.38638672 0.32194336 194.10058594 0.48779297 C210.67326216 4.47949958 226.32053875 11.83753028 240 22 C240.81082031 22.58910156 241.62164062 23.17820312 242.45703125 23.78515625 C254.95708661 33.29650694 265.62147871 44.73578457 274 58 C274.39026367 58.61568848 274.78052734 59.23137695 275.18261719 59.86572266 C295.41785944 92.38724349 299.31841619 131.2121813 291.06982422 168.14868164 C280.68753917 212.37882249 257.71081121 250.09313945 228 284 C227.37029297 284.71873291 226.74058594 285.43746582 226.09179688 286.17797852 C220.35062485 292.6458894 214.35778094 298.82844586 208.24414062 304.94116211 C206.6285932 306.55890192 205.02124966 308.18450636 203.4140625 309.81054688 C196.93128327 316.32793015 190.20462529 322.27493562 183 328 C181.90994262 328.92310759 180.82531725 329.8527318 179.75 330.79296875 C161.69730664 346.51214634 141.73235049 360.07352618 121 372 C120.20239258 372.46164551 119.40478516 372.92329102 118.58300781 373.39892578 C104.52144984 381.480189 90.13239693 388.16876592 75 394 C73.948125 394.42023438 72.89625 394.84046875 71.8125 395.2734375 C64.0349131 397.28264745 58.27649559 395.41409037 51.0625 392.5 C50.13937012 392.13543701 49.21624023 391.77087402 48.26513672 391.39526367 C27.06471646 382.90814941 6.6808249 372.16730622 -12 359 C-13.55530011 357.92868586 -15.11136216 356.85847746 -16.66796875 355.7890625 C-31.8353991 345.3262309 -46.17806449 334.18099997 -60 322 C-60.72179443 321.36723145 -61.44358887 320.73446289 -62.18725586 320.08251953 C-68.80453864 314.21281266 -75.11641492 308.06979272 -81.3684082 301.81689453 C-83.05857346 300.12892145 -84.75660834 298.44914276 -86.45507812 296.76953125 C-93.09082933 290.16791488 -99.19768325 283.35958082 -105 276 C-105.99994584 274.79098433 -107.00334976 273.58481191 -108.01171875 272.3828125 C-143.16386368 229.84781678 -169.53651341 174.78863769 -164.78173828 118.41210938 C-161.57152156 88.91648016 -150.17954356 61.83731536 -130 40 C-129.50516113 39.45601562 -129.01032227 38.91203125 -128.50048828 38.3515625 C-96.53441274 3.53520409 -45.83358039 -10.89061242 0 0 Z M-99 56 C-99.85335937 56.77085937 -100.70671875 57.54171875 -101.5859375 58.3359375 C-120.9922091 76.78682342 -131.45687877 102.44477495 -132.28295898 129.0144043 C-132.94077478 176.01289664 -108.49005269 220.02342588 -79 255 C-77.83597656 256.44246094 -77.83597656 256.44246094 -76.6484375 257.9140625 C-69.74186047 266.35952643 -62.12745183 274.08835428 -54.4375 281.8125 C-53.90697021 282.34820618 -53.37644043 282.88391235 -52.82983398 283.43585205 C-45.88670014 290.43229981 -38.71905909 296.85174852 -31 303 C-29.89818988 303.9348008 -28.80186205 304.87616425 -27.71484375 305.828125 C-13.83327211 317.93301166 1.38206054 328.27694091 17 338 C17.65726074 338.41314453 18.31452148 338.82628906 18.99169922 339.25195312 C28.0839052 344.93092563 37.47323035 349.83717074 47.125 354.5 C48.72601563 355.27525024 48.72601563 355.27525024 50.359375 356.06616211 C53.22130054 357.42489749 56.09623486 358.73346414 59 360 C59.99725098 360.44303467 59.99725098 360.44303467 61.01464844 360.89501953 C65.12519582 362.42747063 67.92535903 361.72553519 71.84521484 359.94262695 C72.55629395 359.59031006 73.26737305 359.23799316 74 358.875 C74.76908691 358.51172607 75.53817383 358.14845215 76.33056641 357.77416992 C78.90155559 356.54382266 81.45108157 355.27539666 84 354 C84.90975586 353.55253418 85.81951172 353.10506836 86.75683594 352.64404297 C100.82065508 345.69466185 114.0753003 337.8830342 127 329 C127.65822754 328.54882812 128.31645508 328.09765625 128.99462891 327.6328125 C151.24763516 312.28190147 171.51198235 294.51171006 190.6875 275.5 C191.56664062 274.63391113 192.44578125 273.76782227 193.3515625 272.87548828 C199.33762829 266.89729889 204.73180723 260.61371507 210 254 C211.01215774 252.77966797 212.02730552 251.56180272 213.046875 250.34765625 C231.3884027 228.21304619 246.378956 202.48561378 255 175 C255.59361328 173.11861328 255.59361328 173.11861328 256.19921875 171.19921875 C264.74880107 141.60940038 265.07809528 109.89786826 250.046875 82.265625 C235.79779648 58.36756418 214.06094605 40.1795357 187.04296875 32.7421875 C186.03878906 32.49726562 185.03460938 32.25234375 184 32 C182.66388672 31.66355469 182.66388672 31.66355469 181.30078125 31.3203125 C155.90222329 26.03045592 129.19623103 31.44310831 107.24609375 44.87109375 C96.64720996 51.82222692 86.82622436 60.59163607 79.375 70.875 C76.20857302 75.04758134 73.1591146 77.71977526 68 79 C61.98475831 79.38874011 57.56720165 77.99630145 53 74 C50.74251309 71.35751533 48.57381144 68.654177 46.40625 65.9375 C32.55051096 49.02270169 13.22781934 37.17751691 -8 32 C-8.89074219 31.77570313 -9.78148437 31.55140625 -10.69921875 31.3203125 C-42.40126353 24.71760417 -75.22564018 34.52406771 -99 56 Z " fill="#3D3F42" transform="translate(191,72)"/>
</svg>
