<?xml version="1.0" encoding="UTF-8"?>
<svg version="1.1" xmlns="http://www.w3.org/2000/svg" width="512" height="512">
<path d="M0 0 C0.98774414 0.23605957 1.97548828 0.47211914 2.99316406 0.71533203 C55.32937507 13.72807061 100.80901425 47.12395636 128.85449219 93.17651367 C143.76552682 118.24504595 153.59301925 145.9614315 157 175 C157.11085938 175.87269531 157.22171875 176.74539062 157.3359375 177.64453125 C162.89984023 230.20085565 147.18171153 283.93763199 114 325 C117.8129751 329.55649134 121.75383237 333.89527794 125.97158813 338.0783844 C126.5415062 338.64774576 127.11142426 339.21710711 127.69861257 339.80372185 C129.58918523 341.69128353 131.48330847 343.57524007 133.37744141 345.45922852 C134.741508 346.81973513 136.10533739 348.1804796 137.46894836 349.54144287 C140.3960361 352.4620009 143.32462391 355.38104333 146.25435257 358.2989521 C150.88819801 362.91445028 155.51764723 367.534341 160.14633179 372.15501404 C173.3057223 385.29029245 186.47102354 398.41963726 199.640625 411.54467773 C206.92146348 418.80095802 214.19869581 426.06083559 221.47208726 433.32458061 C226.07148359 437.91744085 230.67534712 442.50576062 235.28258157 447.09075749 C238.14741842 449.94385515 241.00805615 452.80113417 243.86752892 455.65960693 C245.19283782 456.98277063 246.51986595 458.30421491 247.84874535 459.62379265 C249.66462604 461.42745412 251.47420112 463.23722057 253.28237915 465.04859924 C253.80747688 465.56718917 254.33257461 466.0857791 254.87358439 466.62008387 C260.86512444 472.65290485 264.12227007 477.64717739 264.3125 486.1875 C264.24129802 492.01311655 263.7584036 496.41912027 260 501 C254.5012207 506.04515766 250.2179326 508.14577256 242.6875 508.25 C241.57761719 508.27578125 240.46773438 508.3015625 239.32421875 508.328125 C226.23498082 507.03612032 215.06164349 491.20121326 206.19677734 482.31030273 C204.83592878 480.94917154 203.47485887 479.5882616 202.11358643 478.22755432 C198.44676466 474.56101758 194.78301808 470.89142227 191.11984587 467.22123981 C187.28064569 463.37575666 183.43858293 459.53313564 179.59683228 455.69020081 C172.33488134 448.42515107 165.07548166 441.15755767 157.81701148 433.88903052 C149.54806617 425.60887887 141.2762558 417.3315919 133.00421214 409.05453575 C115.99963449 392.03952657 98.99863002 375.02095094 82 358 C80.55178694 358.96191521 79.10404092 359.92453359 77.65649414 360.88745117 C76.85023087 361.4234343 76.04396759 361.95941742 75.21327209 362.51164246 C72.91290315 364.05856996 70.67171846 365.67181206 68.4375 367.3125 C24.89754491 397.81734508 -30.04058073 407.79919024 -82 399 C-133.51684403 389.63257136 -180.77623646 359.88954813 -211.18847656 317.15258789 C-226.5649703 294.92635397 -237.9222062 270.3739707 -244 244 C-244.20882812 243.11489746 -244.41765625 242.22979492 -244.6328125 241.31787109 C-250.84253897 213.71308232 -250.82226905 181.47346184 -244 154 C-243.77505859 153.08927734 -243.55011719 152.17855469 -243.31835938 151.24023438 C-233.14767781 111.25796829 -212.09976193 72.63349812 -180 46 C-179.1646875 45.26523437 -178.329375 44.53046875 -177.46875 43.7734375 C-129.85222594 2.56683014 -61.44147326 -14.69069211 0 0 Z M-115 55 C-115.63099609 55.30663574 -116.26199219 55.61327148 -116.91210938 55.92919922 C-131.00600608 62.85762092 -143.26664936 71.67602873 -154.53662109 82.59228516 C-155.99204208 83.99234478 -157.47201996 85.36190975 -158.95703125 86.73046875 C-187.88207833 113.88062369 -203.8833513 154.38167651 -205.18359375 193.6796875 C-206.09229895 238.36980926 -188.89146903 279.6866579 -158.125 311.87109375 C-129.80384697 340.68023658 -89.77837695 357.63817743 -49.47363281 358.29296875 C-6.66846114 358.5293961 33.94124767 344.18363707 64.94140625 314.0625 C65.96436385 313.04510017 66.98387707 312.02422598 68 311 C68.77899658 310.21689453 68.77899658 310.21689453 69.57373047 309.41796875 C99.49137503 278.99136334 114.62332186 237.74380307 114.3515625 195.41162109 C113.51104481 152.38762196 95.34548785 113.49180143 65.1640625 83.08984375 C34.42500688 53.82457846 -7.27784214 37.85797003 -49.6640625 38.75390625 C-72.56873138 39.60741727 -94.43841679 44.88468324 -115 55 Z " fill="#3A3A3A" transform="translate(248,4)"/>
</svg>
